# xmcd
#
# Track frame offsets:
#	150
#	13897
#	33541
#	53703
#	70055
#	86182
#	106209
#	125261
#	140902
#	159675
#	178140
#	193735
#	209607
#	226661
#	239403
#	256205
#	274807
#	292509
#	306236
#	318751
#	332513
#
# Disc length: 4637 seconds
#
# Revision: 1
# Processed by: cddbd v1.4PL0 Copyright (c) Steve Scherf et al.
# Submitted via: audiograbber 1.80
#
DISCID=31121b15
DTITLE=Sax&Sex - Highlands&valleys
DYEAR=1900
DGENRE=
TTITLE0=FAUSTO PAPETTI - Love Story
TTITLE1=BRIAN SMITH - Moonlight Sax Medley
TTITLE2=SOUL BALLET - Blue Girl
TTITLE3=GEORGE CASTRATOS - Woman In Love
TTITLE4=SIL AUSTIN - Broken Promises
TTITLE5=KLAUS DOLDINGER - How Intensitive
TTITLE6=CLOUS VAN MECHELEN - When I Need You
TTITLE7=FAUSTO PAPETTI - My Love Serenade
TTITLE8=SOUNDSCAPE UK - The Closer I Get To You
TTITLE9=EARL KLUCH - Maybe Tonight
TTITLE10=FAUSTO PAPETTI - Emmanuelle
TTITLE11=BRIAN SMITH - Auche Un Uomo
TTITLE12=FAUSTO PAPETTI - Abrazame
TTITLE13=SIL AUSTIN - Unchained Melody
TTITLE14=CLOUS VAN MECHELEN - Three Times A Lady
TTITLE15=BEN WEBSTER - Solitude
TTITLE16=CLOUS VAN MECHELEN - You Need Me
TTITLE17=GERRY MULLIGAN - P.S. I Love You
TTITLE18=SIL AUSTIN - I Left My Heart In San Francisco
TTITLE19=FAUSTO PAPETTI - Sleepy Shores
TTITLE20=BRIAN SMITH - Moonlight Theme
EXTD=
EXTT0=
EXTT1=
EXTT2=
EXTT3=
EXTT4=
EXTT5=
EXTT6=
EXTT7=
EXTT8=
EXTT9=
EXTT10=
EXTT11=
EXTT12=
EXTT13=
EXTT14=
EXTT15=
EXTT16=
EXTT17=
EXTT18=
EXTT19=
EXTT20=
PLAYORDER=
